<svg width="30" height="30" viewBox="0 0 30 30" fill="none" xmlns="http://www.w3.org/2000/svg">
<circle cx="15" cy="15" r="15" fill="#FAFAFA"/>
<g clip-path="url(#clip0)">
<path d="M14.1653 8C10.7658 8 8 10.7658 8 14.1653C8 17.565 10.7658 20.3306 14.1653 20.3306C17.565 20.3306 20.3306 17.565 20.3306 14.1653C20.3306 10.7658 17.565 8 14.1653 8ZM14.1653 19.1924C11.3934 19.1924 9.13821 16.9373 9.13821 14.1653C9.13821 11.3934 11.3934 9.13821 14.1653 9.13821C16.9372 9.13821 19.1924 11.3934 19.1924 14.1653C19.1924 16.9372 16.9372 19.1924 14.1653 19.1924Z" fill="#83838F"/>
<path d="M21.8333 21.0285L18.5704 17.7656C18.3481 17.5433 17.988 17.5433 17.7657 17.7656C17.5433 17.9878 17.5433 18.3482 17.7657 18.5704L21.0285 21.8332C21.1397 21.9444 21.2852 22 21.4309 22C21.5764 22 21.7221 21.9444 21.8333 21.8332C22.0556 21.6111 22.0556 21.2506 21.8333 21.0285Z" fill="#83838F"/>
</g>
<defs>
<clipPath id="clip0">
<rect width="14" height="14" fill="white" transform="translate(8 8)"/>
</clipPath>
</defs>
</svg>
